# xmcd
#
# Track frame offsets: 
#        150
#        10666
#        20470
#        35569
#        59065
#        71429
#        88693
#        100740
#        115914
#        126063
#        151402
#
# Disc length: 4036 seconds
#
# Revision: 0
# Processed by: cddbd v1.5.2PL0 Copyright (c) Steve Scherf et al.
# Submitted via: ExactAudioCopy v1.0b4
#
DISCID=890fc20b
DTITLE=J.J. Cale - Shades (LP)
DYEAR=1981
DGENRE=Blues
TTITLE0=Carry On
TTITLE1=Deep Dark Dungeon
TTITLE2=Wish I Had Not Said That
TTITLE3=Pack My Jack
TTITLE4=If You Leave Her
TTITLE5=Mama Don't
TTITLE6=Runaround
TTITLE7=What Do You Expect
TTITLE8=Love Has Been Gone
TTITLE9=Cloudy Day
TTITLE10=Shades (LP)
EXTD=
EXTT0=
EXTT1=
EXTT2=
EXTT3=
EXTT4=
EXTT5=
EXTT6=
EXTT7=
EXTT8=
EXTT9=
EXTT10=
PLAYORDER=
